<?xml version="1.0" encoding="UTF-8"?>
<svg version="1.1" xmlns="http://www.w3.org/2000/svg" width="500" height="500">
<path d="M0 0 C3.03528189 -0.03898873 6.07005631 -0.06741494 9.10546875 -0.08984375 C9.95878784 -0.10188843 10.81210693 -0.11393311 11.69128418 -0.12634277 C25.71494991 -0.20397077 37.37807184 6.20146262 47.67578125 15.38671875 C54.83191921 22.85556189 59.70601954 31.90648596 62 42 C62.268125 41.24976563 62.53625 40.49953125 62.8125 39.7265625 C68.11795464 25.86955268 77.09610157 15.48498728 90.5078125 9.04296875 C96.38887428 6.58177205 101.49703415 5.60862159 107.8125 5.3125 C108.58787109 5.26544922 109.36324219 5.21839844 110.16210938 5.16992188 C112.10613056 5.06617271 114.05340539 5.02741683 116 5 C117 6 117 6 117.1328125 7.8125 C117.13023437 8.534375 117.12765625 9.25625 117.125 10 C117.12886719 11.0828125 117.12886719 11.0828125 117.1328125 12.1875 C117 14 117 14 116 15 C114.26149879 15.19457678 112.52223373 15.38398888 110.78027344 15.54467773 C101.93238627 16.38757229 94.05857243 18.13328546 86.828125 23.66015625 C85 25 85 25 83 25 C83 25.66 83 26.32 83 27 C82.34 27 81.68 27 81 27 C80.71125 27.58007812 80.4225 28.16015625 80.125 28.7578125 C79.42512047 30.15271129 78.71805844 31.5440591 78 32.9296875 C77.67 33.57164062 77.34 34.21359375 77 34.875 C76.67 35.51179688 76.34 36.14859375 76 36.8046875 C73.49705429 42.2994355 72.61289576 47.23284584 72.625 53.25 C72.62516113 53.99926758 72.62532227 54.74853516 72.62548828 55.52050781 C72.75229977 61.70089927 74.16829086 66.501937 77 72 C77.68039754 73.66110849 78.35051865 75.32656156 79 77 C79.66 77 80.32 77 81 77 C81 77.66 81 78.32 81 79 C81.66 79 82.32 79 83 79 C83 79.66 83 80.32 83 81 C83.54269531 81.268125 84.08539063 81.53625 84.64453125 81.8125 C86.33982687 82.6671764 88.02348924 83.54507097 89.69921875 84.4375 C90.68535156 84.953125 91.67148437 85.46875 92.6875 86 C93.66074219 86.515625 94.63398438 87.03125 95.63671875 87.5625 C99.81785895 89.4716651 99.81785895 89.4716651 108 91 C107.67 82.09 107.34 73.18 107 64 C101.77936725 64.03957157 101.77936725 64.03957157 96.55883789 64.09008789 C94.70566241 64.09723945 92.85250692 64.0502852 91 64 C90 63 90 63 89.8671875 61.1875 C89.86976563 60.465625 89.87234375 59.74375 89.875 59 C89.87113281 57.9171875 89.87113281 57.9171875 89.8671875 56.8125 C90 55 90 55 91 54 C92.84159023 53.90040379 94.68696967 53.86919589 96.53125 53.8671875 C97.65144531 53.86589844 98.77164063 53.86460937 99.92578125 53.86328125 C101.10527344 53.86714844 102.28476562 53.87101562 103.5 53.875 C105.26923828 53.86919922 105.26923828 53.86919922 107.07421875 53.86328125 C108.75451172 53.86521484 108.75451172 53.86521484 110.46875 53.8671875 C111.50451172 53.86831543 112.54027344 53.86944336 113.60742188 53.87060547 C116 54 116 54 117 55 C117.09295815 56.44289787 117.11746513 57.89029785 117.11352539 59.33618164 C117.11341209 60.71750023 117.11341209 60.71750023 117.11329651 62.12672424 C117.10813522 63.12775681 117.10297394 64.12878937 117.09765625 65.16015625 C117.0962413 66.17975937 117.09482635 67.19936249 117.09336853 68.24986267 C117.08775097 71.52077107 117.0751955 74.79161213 117.0625 78.0625 C117.05748726 80.27408756 117.05292396 82.48567618 117.04882812 84.69726562 C117.03777584 90.13153357 117.02102063 95.56576197 117 101 C115.4244826 101.00510672 113.84896032 101.00871911 112.2734375 101.01171875 C110.95738525 101.01498169 110.95738525 101.01498169 109.61474609 101.01831055 C96.28734007 100.92498137 84.98660716 95.90538001 75 87 C75 86.34 75 85.68 75 85 C74.34 85 73.68 85 73 85 C68.61105934 79.11925192 65.12389295 72.62265306 62 66 C61.74347656 66.87140625 61.48695313 67.7428125 61.22265625 68.640625 C58.32281273 77.66236041 54.34308372 88.3007745 45.72265625 93.328125 C45.15417969 93.54984375 44.58570313 93.7715625 44 94 C44 94.66 44 95.32 44 96 C38.58823529 100 38.58823529 100 36 100 C36 100.66 36 101.32 36 102 C24.19893125 106.84620692 13.8658828 109.91142168 1 109 C0 108 0 108 -0.12304783 106.19027615 C-0.12212604 105.3947688 -0.12120424 104.59926146 -0.12025452 103.77964783 C-0.12162918 102.86954453 -0.12300385 101.95944122 -0.12442017 101.02175903 C-0.12082489 100.01547455 -0.11722961 99.00919006 -0.11352539 97.97241211 C-0.11367142 96.91888046 -0.11381744 95.86534882 -0.1139679 94.77989197 C-0.11326826 91.279022 -0.10547348 87.77820448 -0.09765625 84.27734375 C-0.09579225 81.85738657 -0.09436826 79.43742901 -0.09336853 77.01747131 C-0.08954192 70.63384976 -0.07971041 64.25025079 -0.06866455 57.86663818 C-0.05845351 51.35836086 -0.05387157 44.8500799 -0.04882812 38.34179688 C-0.03808827 25.56118825 -0.02120112 12.78059533 0 0 Z M10 10 C10 39.37 10 68.74 10 99 C22.43847597 97.61794711 32.03086714 93.98897607 41 85 C41 84.34 41 83.68 41 83 C41.66 83 42.32 83 43 83 C43 82.34 43 81.68 43 81 C43.66 81 44.32 81 45 81 C51.38490545 68.37073733 55.28454261 56.25963691 52 42 C50.17549935 36.76025469 47.64357528 31.86611116 45 27 C44.34 27 43.68 27 43 27 C43 26.34 43 25.68 43 25 C42.34 25 41.68 25 41 25 C41 24.34 41 23.68 41 23 C40.34 23 39.68 23 39 23 C39 22.34 39 21.68 39 21 C30.28407477 13.3239357 21.50404028 10 10 10 Z " fill="#E9E9E9" transform="translate(231,197)"/>
<path d="M0 0 C1.20557073 0.61143779 2.39059889 1.26377548 3.5625 1.9375 C4.91988281 2.70320312 4.91988281 2.70320312 6.3046875 3.484375 C9.41045799 5.2703906 12.48900888 7.09656573 15.5625 8.9375 C16.81933594 9.68386719 16.81933594 9.68386719 18.1015625 10.4453125 C31.00003086 18.13397605 43.71729653 26.12453833 56.43359375 34.109375 C60.32326772 36.54875537 64.22955714 38.95530396 68.16015625 41.328125 C69.02237793 41.8550293 69.88459961 42.38193359 70.77294922 42.92480469 C72.37052311 43.90041753 73.97462394 44.86545972 75.58642578 45.81738281 C80.57892951 48.89021002 83.55990618 51.86803194 86.5625 56.9375 C86.5625 57.9275 86.5625 58.9175 86.5625 59.9375 C79.0302686 60.85981405 79.0302686 60.85981405 75.828125 58.84765625 C74.72527315 57.81850984 73.6378124 56.77273211 72.5625 55.71484375 C68.43689524 52.04853483 63.35099497 49.63602284 58.5625 46.9375 C51.90341052 43.06734633 45.48519229 38.92500124 39.12890625 34.57421875 C36.59941194 32.81453155 36.59941194 32.81453155 33.5625 31.9375 C33.5625 31.2775 33.5625 30.6175 33.5625 29.9375 C33.04300781 29.855 32.52351562 29.7725 31.98828125 29.6875 C28.59299764 28.63775048 25.75102437 26.79470404 22.75 24.9375 C21.41547398 24.12351853 20.08083509 23.30972209 18.74609375 22.49609375 C17.71718018 21.86550049 17.71718018 21.86550049 16.66748047 21.22216797 C13.23007196 19.12432019 9.77005248 17.06441348 6.3125 15 C3.02158502 13.03477324 -0.2470074 11.06449507 -3.4375 8.9375 C-11.49920304 7.44750552 -16.90647035 10.2282917 -23.5 14.5625 C-24.33337891 15.08457031 -25.16675781 15.60664063 -26.02539062 16.14453125 C-29.36598531 18.25027576 -32.66391127 20.40737806 -35.92138672 22.63964844 C-36.70916504 23.17879883 -37.49694336 23.71794922 -38.30859375 24.2734375 C-39.00782959 24.76118652 -39.70706543 25.24893555 -40.42749023 25.75146484 C-42.44610983 26.94258035 -44.14710337 27.4990022 -46.4375 27.9375 C-46.4375 28.5975 -46.4375 29.2575 -46.4375 29.9375 C-46.94796875 30.205625 -47.4584375 30.47375 -47.984375 30.75 C-53.87459568 33.92487072 -59.35221837 37.53034578 -64.8359375 41.36328125 C-67.4375 42.9375 -67.4375 42.9375 -70.4375 42.9375 C-70.4375 43.5975 -70.4375 44.2575 -70.4375 44.9375 C-72.20266741 46.09635779 -74.02816957 47.16378875 -75.875 48.1875 C-80.64880607 50.8822994 -85.20884119 53.72399025 -89.6953125 56.87109375 C-91.4375 57.9375 -91.4375 57.9375 -93.4375 57.9375 C-93.9015625 59.113125 -93.9015625 59.113125 -94.375 60.3125 C-95.4375 62.9375 -95.4375 62.9375 -96.4375 64.9375 C-96.54431529 67.57056881 -96.59165884 70.17830308 -96.59521484 72.81201172 C-96.60029556 73.62517853 -96.60537628 74.43834534 -96.61061096 75.27615356 C-96.62132486 77.04514355 -96.62994103 78.81414718 -96.63673019 80.58315659 C-96.64850021 83.38209922 -96.6679479 86.18088623 -96.68984985 88.97976685 C-96.75153135 96.93876988 -96.80553353 104.89775741 -96.83886719 112.85693359 C-96.85979463 117.72229696 -96.89508284 122.58737754 -96.93962479 127.4525795 C-96.95380106 129.30810343 -96.96251089 131.1636774 -96.96567917 133.01925278 C-96.97057952 135.61453656 -96.99371446 138.20906793 -97.02099609 140.80419922 C-97.01798996 141.57213806 -97.01498383 142.3400769 -97.0118866 143.13128662 C-97.06230985 146.35585722 -97.25119345 148.6039468 -98.83853149 151.4458313 C-100.4375 152.9375 -100.4375 152.9375 -102.4375 152.9375 C-102.4375 153.5975 -102.4375 154.2575 -102.4375 154.9375 C-103.7575 155.2675 -105.0775 155.5975 -106.4375 155.9375 C-106.50714428 144.22804841 -106.56038452 132.51864645 -106.59293652 120.80902958 C-106.60856327 115.37122826 -106.62974692 109.93356912 -106.66381836 104.49584961 C-106.69651842 99.24387154 -106.71437549 93.99202986 -106.72213173 88.73995781 C-106.72765614 86.74058321 -106.73844387 84.74121571 -106.75469017 82.74189949 C-106.77660597 79.93201952 -106.77946103 77.12269642 -106.77807617 74.31274414 C-106.788862 73.49418442 -106.79964783 72.67562469 -106.8107605 71.83226013 C-106.78019901 66.06632665 -105.54304012 61.29435962 -103.4375 55.9375 C-102.7775 55.9375 -102.1175 55.9375 -101.4375 55.9375 C-101.210625 55.35742188 -100.98375 54.77734375 -100.75 54.1796875 C-99.07200198 51.31310756 -97.14523168 49.97791247 -94.4375 48.0625 C-93.550625 47.42570312 -92.66375 46.78890625 -91.75 46.1328125 C-88.29161058 43.84081385 -84.76412642 41.71266648 -81.19873047 39.59277344 C-76.25679963 36.63023665 -71.38258334 33.55900537 -66.5 30.5 C-64.98889648 29.55543945 -64.98889648 29.55543945 -63.44726562 28.59179688 C-57.60415496 24.93562538 -51.77931025 21.25209522 -45.96704102 17.54711914 C-12.37865474 -3.82612965 -12.37865474 -3.82612965 0 0 Z " fill="#E5E5E5" transform="translate(259.4375,138.0625)"/>
<path d="M0 0 C3.3 0 6.6 0 10 0 C10 35.97 10 71.94 10 109 C7.03 109 4.06 109 1 109 C1 95.47 1 81.94 1 68 C-7.91 68 -16.82 68 -26 68 C-26.66 69.98 -27.32 71.96 -28 74 C-28.86490422 75.59173638 -29.78264933 77.15586143 -30.75 78.6875 C-32.94799072 82.22870727 -34.95908821 85.79904472 -36.875 89.5 C-43.02874298 100.77391155 -51.56379104 110.62545414 -64 115 C-73.48931009 117.25935955 -83.40954346 116.81065566 -92 112 C-91.505 111.01 -91.505 111.01 -91 110 C-88.48089253 109.79007438 -86.02295267 109.68066999 -83.5 109.625 C-73.62193579 109.19196207 -67.30913083 106.4401795 -59.62890625 100.171875 C-58 99 -58 99 -56 99 C-56 98.34 -56 97.68 -56 97 C-55.34 97 -54.68 97 -54 97 C-53.73832031 96.44957031 -53.47664063 95.89914062 -53.20703125 95.33203125 C-51.83593496 92.68301997 -50.28122728 90.20947957 -48.6875 87.6875 C-40.43839966 74.43668271 -32.74955969 60.79872205 -25.92578125 46.76171875 C-22.87171151 40.6552807 -19.37983698 34.77579866 -15.99511719 28.84912109 C-11.8323332 21.53713196 -7.84768086 14.14865147 -3.9831543 6.67504883 C-1.09007092 1.09007092 -1.09007092 1.09007092 0 0 Z M0 21 C-4.32088859 27.71344673 -7.94376128 34.79304673 -11.4453125 41.95703125 C-13.67209976 46.31549175 -16.16471303 50.50215096 -18.6796875 54.69921875 C-20.08295399 56.70243918 -20.08295399 56.70243918 -20 58 C-9.39862798 59.45821511 -9.39862798 59.45821511 1 58 C1 45.79 1 33.58 1 21 C0.67 21 0.34 21 0 21 Z " fill="#EDEDED" transform="translate(216,197)"/>
<path d="M0 0 C-0.56302958 3.94120709 -1.6791945 6.7508723 -4 10 C-4.66 10 -5.32 10 -6 10 C-6 10.66 -6 11.32 -6 12 C-7.57861328 13.19824219 -7.57861328 13.19824219 -9.8203125 14.546875 C-11.07279785 15.30955688 -11.07279785 15.30955688 -12.35058594 16.08764648 C-13.26614258 16.63622314 -14.18169922 17.1847998 -15.125 17.75 C-17.05026225 18.92189155 -18.97471506 20.09511373 -20.8984375 21.26953125 C-22.40229004 22.18532959 -22.40229004 22.18532959 -23.93652344 23.11962891 C-28.90873906 26.17158975 -33.8307998 29.30103484 -38.75 32.4375 C-39.64090332 33.0037207 -40.53180664 33.56994141 -41.44970703 34.15332031 C-46.32500643 37.26053313 -51.15687338 40.42035838 -55.93994141 43.66796875 C-58.82582841 45.53397959 -61.83535942 47.13730892 -64.859375 48.765625 C-66.98518705 49.99145823 -68.91117642 51.343758 -70.875 52.8125 C-74 55 -74 55 -77 55 C-77 55.66 -77 56.32 -77 57 C-85.14560191 61.93139143 -92.39851924 64.80320492 -102 63 C-107.37897768 60.81816843 -112.25931695 57.69332732 -117.125 54.5625 C-123.73663774 50.36734291 -130.4365766 46.34177717 -137.1875 42.375 C-143.91066348 38.42209978 -150.60856501 34.44493778 -157.21875 30.3046875 C-160.55483696 28.24199037 -163.94878854 26.28431541 -167.34375 24.3203125 C-169.08336639 23.30491634 -170.82198203 22.28783168 -172.56015015 21.2699585 C-174.29163477 20.26214465 -176.03213928 19.26987963 -177.77270508 18.27783203 C-178.83384521 17.65505371 -179.89498535 17.03227539 -180.98828125 16.390625 C-181.95290283 15.83407227 -182.91752441 15.27751953 -183.91137695 14.70410156 C-184.60062256 14.14174805 -185.28986816 13.57939453 -186 13 C-186 11.68 -186 10.36 -186 9 C-183.3125 7.375 -183.3125 7.375 -180 6 C-176.54561641 7.07357506 -173.53992116 8.74374172 -170.4375 10.58203125 C-169.56859131 11.09548096 -168.69968262 11.60893066 -167.80444336 12.13793945 C-166.87897705 12.69054443 -165.95351074 13.24314941 -165 13.8125 C-164.03392822 14.38637451 -163.06785645 14.96024902 -162.07250977 15.55151367 C-152.73215421 21.12022561 -143.48791597 26.84058608 -134.26074219 32.59423828 C-131.20400424 34.49496151 -128.1335182 36.37244045 -125.0625 38.25 C-119.87796071 41.43111419 -114.75822096 44.70543179 -109.66625977 48.03222656 C-102.87511164 52.44384215 -98.20447911 54.20610063 -90 53 C-86.28596013 51.47982836 -83.11391159 49.38977588 -79.8125 47.125 C-78.90467773 46.53219238 -77.99685547 45.93938477 -77.06152344 45.32861328 C-75.22394377 44.12866019 -73.39226572 42.91961616 -71.56689453 41.70117188 C-68.01047538 39.344207 -64.38321634 37.11079022 -60.75 34.875 C-54.47738789 30.96844998 -48.28466692 26.94376476 -42.09521484 22.90722656 C-36.9951578 19.59876142 -31.81096715 16.51173027 -26.52734375 13.50390625 C-24.2212303 12.131644 -22.08624582 10.66624168 -19.9375 9.0625 C-17 7 -17 7 -14 7 C-14 6.34 -14 5.68 -14 5 C-9.89203056 -0.56563602 -6.41520595 -0.62894176 0 0 Z " fill="#E5E5E5" transform="translate(346,302)"/>
<path d="M0 0 C3.3 0 6.6 0 10 0 C10 25.08 10 50.16 10 76 C9.67 76 9.34 76 9 76 C9 51.25 9 26.5 9 1 C2.59628479 1.7018576 2.59628479 1.7018576 -1 3 C-0.67 2.01 -0.34 1.02 0 0 Z " fill="#EBEBEB" transform="translate(216,197)"/>
<path d="M0 0 C3.3 0 6.6 0 10 0 C10 5.61 10 11.22 10 17 C9.67 17 9.34 17 9 17 C9 11.72 9 6.44 9 1 C2.59628479 1.7018576 2.59628479 1.7018576 -1 3 C-0.67 2.01 -0.34 1.02 0 0 Z " fill="#D7D7D7" transform="translate(216,197)"/>
<path d="M0 0 C2.97 0 5.94 0 9 0 C8.25 4.75 8.25 4.75 6 7 C6 5.02 6 3.04 6 1 C4.02 1 2.04 1 0 1 C0 0.67 0 0.34 0 0 Z " fill="#9B9B9B" transform="translate(337,302)"/>
</svg>
